<svg xmlns="http://www.w3.org/2000/svg" viewBox="0 0 200 200" width="512" height="512"><defs><clipPath id="k25"><rect width="200" height="200" rx="46"/></clipPath></defs><g clip-path="url(#k25)"><rect width="200" height="200" fill="#000000"/>
      <g transform="translate(100 100) scale(.92) translate(-100 -101)">
      <clipPath id="eggk25"><path d="M100 34 C66 34 46 86 46 116 C46 148 70 168 100 168 C130 168 154 148 154 116 C154 86 134 34 100 34Z"/></clipPath>
      <rect x="40" y="96" width="120" height="80" fill="#F2CF8A" clip-path="url(#eggk25)"/>
      <path d="M100 34 C66 34 46 86 46 116 C46 148 70 168 100 168 C130 168 154 148 154 116 C154 86 134 34 100 34Z" fill="none" stroke="#F2F2F0" stroke-width="8"/>
      <path d="M40 96 H160" stroke="#000000" stroke-width="3" clip-path="url(#eggk25)"/>
      </g></g><rect x="1" y="1" width="198" height="198" rx="45" fill="none" stroke="#fff" stroke-opacity=".22" stroke-width="2"/></svg>