<svg xmlns="http://www.w3.org/2000/svg" viewBox="0 0 200 200" width="512" height="512">
  <rect width="200" height="200" rx="44" fill="#000000"/>
  <path fill="#E5534B" d="M 77.07,54.10 C 76.34,57.50 73.01,60.25 69.61,60.25 C 66.21,60.25 64.04,57.50 64.77,54.10 C 65.49,50.70 68.83,47.95 72.22,47.95 C 75.62,47.95 77.79,50.70 77.07,54.10 Z M 89.01,50.00 C 88.14,54.08 84.14,57.38 80.06,57.38 C 75.98,57.38 73.38,54.08 74.25,50.00 C 75.11,45.92 79.12,42.62 83.20,42.62 C 87.27,42.62 89.87,45.92 89.01,50.00 Z M 96.75,54.10 C 96.02,57.50 92.69,60.25 89.29,60.25 C 85.89,60.25 83.72,57.50 84.45,54.10 C 85.17,50.70 88.51,47.95 91.90,47.95 C 95.30,47.95 97.47,50.70 96.75,54.10 Z"/>
  <path fill="#F2F2F0" d="M 75.35,56.00 L 85.35,56.00 C 89.77,56.00 92.59,59.58 91.65,64.00 L 72.95,152.00 C 72.01,156.42 67.67,160.00 63.25,160.00 L 53.25,160.00 C 48.83,160.00 46.01,156.42 46.95,152.00 L 65.65,64.00 C 66.59,59.58 70.93,56.00 75.35,56.00 Z"/>
  <path fill="#F2F2F0" d="M 108.50,60.00 L 152.50,60.00 C 156.92,60.00 159.74,63.58 158.80,68.00 L 157.10,76.00 C 156.16,80.42 151.82,84.00 147.40,84.00 L 103.40,84.00 C 98.98,84.00 96.16,80.42 97.10,76.00 L 98.80,68.00 C 99.74,63.58 104.08,60.00 108.50,60.00 Z"/>
  <path fill="#F2F2F0" d="M 100.00,100.00 L 126.00,100.00 C 130.42,100.00 133.24,103.58 132.30,108.00 L 130.60,116.00 C 129.66,120.42 125.32,124.00 120.90,124.00 L 94.90,124.00 C 90.48,124.00 87.66,120.42 88.60,116.00 L 90.30,108.00 C 91.24,103.58 95.58,100.00 100.00,100.00 Z"/>
  <path fill="#F0A23A" d="M 64.38,70.00 L 44.89,77.00 L 61.19,85.00 Z"/>
  <path fill="#000000" d="M 79.33,74.00 C 78.88,76.10 76.82,77.80 74.72,77.80 C 72.62,77.80 71.28,76.10 71.73,74.00 C 72.17,71.90 74.24,70.20 76.33,70.20 C 78.43,70.20 79.77,71.90 79.33,74.00 Z"/>
</svg>
